<svg width="140" height="40" viewBox="0 0 140 40" fill="none" xmlns="http://www.w3.org/2000/svg">
<path d="M140 35.9904C140 38.2056 138.198 40 135.969 40H4.03674C1.8086 40 0 38.2056 0 35.9904V4.01487C0 1.80067 1.8086 0 4.03674 0H135.967C138.198 0 139.999 1.80067 139.999 4.01487L140 35.9904Z" fill="black"/>
<path d="M30.8081 19.7758C30.7777 16.4264 33.5756 14.7969 33.7035 14.7211C32.119 12.4317 29.6629 12.1189 28.7999 12.0939C26.7371 11.8788 24.7362 13.3171 23.6854 13.3171C22.6136 13.3171 20.9955 12.1147 19.2516 12.15C17.0074 12.1843 14.9079 13.4719 13.7564 15.4714C11.3801 19.5482 13.1524 25.5393 15.4291 28.8346C16.568 30.4485 17.8987 32.2505 19.6406 32.1871C21.3447 32.1175 21.9813 31.1105 24.0378 31.1105C26.0754 31.1105 26.6731 32.1871 28.4496 32.1466C30.2785 32.1175 31.43 30.5254 32.529 28.897C33.8451 27.0472 34.3736 25.2254 34.3946 25.1319C34.3516 25.1174 30.8427 23.7903 30.8081 19.7758Z" fill="white"/>
<path d="M27.4523 9.92611C28.3689 8.79025 28.996 7.24493 28.8219 5.67676C27.4953 5.73495 25.8363 6.58607 24.8809 7.69699C24.0357 8.67593 23.2806 10.2805 23.4757 11.7894C24.9659 11.8996 26.4959 11.0443 27.4523 9.92611Z" fill="white"/>
<path d="M55.4705 31.9559H53.0889L51.7844 27.8936H47.2498L46.0071 31.9559H43.6885L48.1811 18.126H50.9559L55.4705 31.9559ZM51.3911 26.1893L50.2113 22.578C50.0865 22.2091 49.8527 21.3403 49.5077 19.9727H49.4657C49.3283 20.5609 49.1071 21.4296 48.8029 22.578L47.6441 26.1893H51.3911V26.1893Z" fill="white"/>
<path d="M67.0239 26.8466C67.0239 28.5426 66.5615 29.8832 65.6365 30.8673C64.8081 31.7434 63.7793 32.1809 62.5513 32.1809C61.2257 32.1809 60.2735 31.7091 59.6936 30.7655H59.6517V36.0187H57.4159V25.2659C57.4159 24.1997 57.3875 23.1054 57.333 21.983H59.2993L59.4241 23.5637H59.466C60.2117 22.3728 61.3432 21.7783 62.8617 21.7783C64.0488 21.7783 65.0398 22.2428 65.8326 23.1729C66.6275 24.1041 67.0239 25.3283 67.0239 26.8466ZM64.7462 26.9276C64.7462 25.957 64.526 25.1568 64.0834 24.527C63.6 23.8703 62.9508 23.5419 62.1371 23.5419C61.5854 23.5419 61.0842 23.7248 60.6364 24.0854C60.1875 24.4491 59.8939 24.924 59.7565 25.5122C59.6873 25.7866 59.6527 26.011 59.6527 26.1877V27.8505C59.6527 28.5758 59.8771 29.1879 60.326 29.6878C60.7748 30.1877 61.3579 30.4371 62.0752 30.4371C62.9173 30.4371 63.5727 30.1149 64.0415 29.4727C64.5113 28.8294 64.7462 27.9814 64.7462 26.9276Z" fill="white"/>
<path d="M78.5981 26.8466C78.5981 28.5426 78.1356 29.8832 77.2096 30.8673C76.3822 31.7434 75.3534 32.1809 74.1254 32.1809C72.7999 32.1809 71.8477 31.7091 71.2688 30.7655H71.2269V36.0187H68.9911V25.2659C68.9911 24.1997 68.9627 23.1054 68.9082 21.983H70.8745L70.9993 23.5637H71.0412C71.7858 22.3728 72.9173 21.7783 74.4369 21.7783C75.623 21.7783 76.614 22.2428 77.4089 23.1729C78.2006 24.1041 78.5981 25.3283 78.5981 26.8466ZM76.3203 26.9276C76.3203 25.957 76.0991 25.1568 75.6565 24.527C75.1731 23.8703 74.526 23.5419 73.7112 23.5419C73.1585 23.5419 72.6583 23.7248 72.2095 24.0854C71.7606 24.4491 71.4681 24.924 71.3307 25.5122C71.2625 25.7866 71.2269 26.011 71.2269 26.1877V27.8505C71.2269 28.5758 71.4513 29.1879 71.898 29.6878C72.3469 30.1866 72.9299 30.4371 73.6493 30.4371C74.4914 30.4371 75.1469 30.1149 75.6156 29.4727C76.0854 28.8294 76.3203 27.9814 76.3203 26.9276Z" fill="white"/>
<path d="M91.5388 28.077C91.5388 29.2534 91.1267 30.2105 90.2993 30.9494C89.3901 31.7569 88.1243 32.1601 86.4978 32.1601C84.9961 32.1601 83.7922 31.8733 82.8809 31.2986L83.3989 29.4519C84.3805 30.0401 85.4575 30.3352 86.631 30.3352C87.4731 30.3352 88.1285 30.1461 88.5994 29.7699C89.0681 29.3937 89.302 28.8887 89.302 28.2589C89.302 27.6977 89.109 27.2249 88.7221 26.8414C88.3372 26.4579 87.6943 26.1015 86.7967 25.772C84.3532 24.869 83.1326 23.546 83.1326 21.8064C83.1326 20.6695 83.5604 19.7373 84.4172 19.012C85.2708 18.2855 86.4097 17.9229 87.8338 17.9229C89.1038 17.9229 90.1588 18.1421 91.0009 18.5796L90.4419 20.3858C89.6554 19.9618 88.7661 19.7498 87.7709 19.7498C86.9844 19.7498 86.3699 19.942 85.9294 20.3245C85.5571 20.6664 85.3704 21.0831 85.3704 21.5767C85.3704 22.1234 85.5833 22.5754 86.0112 22.9308C86.3835 23.2592 87.0599 23.6146 88.0415 23.9981C89.2422 24.4772 90.1242 25.0373 90.6915 25.6796C91.2567 26.3197 91.5388 27.121 91.5388 28.077Z" fill="white"/>
<path d="M98.9313 23.6456H96.4668V28.4873C96.4668 29.7187 96.901 30.334 97.7714 30.334C98.171 30.334 98.5024 30.2997 98.7645 30.2311L98.8264 31.9136C98.386 32.0767 97.806 32.1588 97.0877 32.1588C96.2047 32.1588 95.5146 31.8917 95.0165 31.3586C94.5205 30.8245 94.2709 29.9287 94.2709 28.6702V23.6435H92.8027V21.9807H94.2709V20.1548L96.4668 19.498V21.9807H98.9313V23.6456Z" fill="white"/>
<path d="M110.05 26.887C110.05 28.4199 109.607 29.6784 108.724 30.6625C107.798 31.6757 106.569 32.1808 105.037 32.1808C103.561 32.1808 102.385 31.6955 101.508 30.7249C100.632 29.7542 100.193 28.529 100.193 27.0523C100.193 25.507 100.644 24.2412 101.549 23.2571C102.452 22.2719 103.671 21.7793 105.203 21.7793C106.679 21.7793 107.868 22.2646 108.764 23.2363C109.622 24.1788 110.05 25.3958 110.05 26.887ZM107.73 26.9587C107.73 26.039 107.532 25.2503 107.13 24.5925C106.662 23.7964 105.992 23.3994 105.123 23.3994C104.225 23.3994 103.542 23.7975 103.073 24.5925C102.671 25.2513 102.473 26.0526 102.473 27.0003C102.473 27.92 102.671 28.7088 103.073 29.3656C103.557 30.1616 104.232 30.5586 105.103 30.5586C105.957 30.5586 106.627 30.1533 107.111 29.3448C107.523 28.6745 107.73 27.8774 107.73 26.9587Z" fill="white"/>
<path d="M117.318 23.9316C117.096 23.891 116.86 23.8703 116.613 23.8703C115.826 23.8703 115.218 24.1644 114.79 24.7536C114.418 25.2732 114.231 25.93 114.231 26.7229V31.9554H111.997L112.017 25.1236C112.017 23.9742 111.989 22.9277 111.934 21.9841H113.881L113.963 23.8921H114.025C114.261 23.2363 114.633 22.7084 115.143 22.3125C115.641 21.956 116.179 21.7783 116.759 21.7783C116.965 21.7783 117.152 21.7929 117.318 21.8188V23.9316Z" fill="white"/>
<path d="M127.317 26.4975C127.317 26.8945 127.291 27.2292 127.235 27.5025H120.528C120.554 28.4876 120.878 29.2411 121.501 29.7607C122.066 30.2252 122.797 30.458 123.695 30.458C124.688 30.458 125.594 30.3011 126.409 29.9862L126.759 31.5242C125.807 31.9358 124.683 32.1405 123.386 32.1405C121.825 32.1405 120.6 31.6853 119.709 30.776C118.82 29.8667 118.374 28.6456 118.374 27.1138C118.374 25.6101 118.788 24.3578 119.618 23.3591C120.486 22.2929 121.66 21.7598 123.136 21.7598C124.586 21.7598 125.684 22.2929 126.43 23.3591C127.02 24.2061 127.317 25.2536 127.317 26.4975ZM125.185 25.9229C125.2 25.2661 125.054 24.6987 124.751 24.2196C124.364 23.6033 123.77 23.2957 122.969 23.2957C122.238 23.2957 121.644 23.5961 121.19 24.1988C120.817 24.6779 120.596 25.2526 120.528 25.9218H125.185V25.9229Z" fill="white"/>
<path d="M50.6513 9.61907C50.6513 10.8422 50.2811 11.763 49.5418 12.3813C48.857 12.9518 47.8838 13.2376 46.6233 13.2376C45.9982 13.2376 45.4634 13.2106 45.0156 13.1566V6.47336C45.5997 6.37983 46.229 6.33203 46.9085 6.33203C48.1093 6.33203 49.0143 6.5908 49.6246 7.10833C50.3084 7.6934 50.6513 8.52997 50.6513 9.61907ZM49.4925 9.64921C49.4925 8.85629 49.2806 8.24834 48.857 7.82434C48.4333 7.40138 47.8146 7.18938 46.9997 7.18938C46.6537 7.18938 46.359 7.21225 46.1147 7.26005V12.3408C46.2499 12.3616 46.4974 12.3709 46.8571 12.3709C47.6982 12.3709 48.3473 12.1392 48.8045 11.6757C49.2618 11.2122 49.4925 10.5367 49.4925 9.64921Z" fill="white"/>
<path d="M56.7949 10.6874C56.7949 11.4408 56.5778 12.0581 56.1437 12.5424C55.6886 13.0402 55.0856 13.2885 54.3326 13.2885C53.6069 13.2885 53.0291 13.0506 52.5981 12.5725C52.1681 12.0955 51.9531 11.4938 51.9531 10.7684C51.9531 10.0098 52.1744 9.38732 52.619 8.90408C53.0637 8.42085 53.6614 8.17871 54.4144 8.17871C55.1401 8.17871 55.7232 8.41669 56.1647 8.89369C56.5841 9.35718 56.7949 9.95577 56.7949 10.6874ZM55.655 10.7227C55.655 10.2707 55.5564 9.88302 55.3603 9.55983C55.1296 9.16908 54.8014 8.97371 54.3746 8.97371C53.9331 8.97371 53.5975 9.16908 53.3668 9.55983C53.1696 9.88302 53.0721 10.2769 53.0721 10.7425C53.0721 11.1945 53.1707 11.5821 53.3668 11.9053C53.6048 12.2961 53.9362 12.4915 54.3641 12.4915C54.7835 12.4915 55.1128 12.293 55.3498 11.8949C55.5533 11.5655 55.655 11.1748 55.655 10.7227Z" fill="white"/>
<path d="M65.0336 8.27734L63.4868 13.1762H62.4801L61.8393 11.0489C61.6768 10.5179 61.5446 9.98997 61.4419 9.46621H61.422C61.3265 10.0045 61.1944 10.5314 61.0245 11.0489L60.3439 13.1762H59.3256L57.8711 8.27734H59.0005L59.5595 10.6062C59.6948 11.157 59.8059 11.6818 59.8951 12.1786H59.915C59.9968 11.7691 60.1321 11.2474 60.3229 10.6166L61.0245 8.27838H61.9201L62.5923 10.5667C62.7548 11.1248 62.887 11.6621 62.9887 12.1796H63.0191C63.0936 11.6756 63.2058 11.1383 63.3547 10.5667L63.9545 8.27838H65.0336V8.27734Z" fill="white"/>
<path d="M70.7316 13.1775H69.6326V10.3716C69.6326 9.50702 69.3012 9.0747 68.6363 9.0747C68.3102 9.0747 68.047 9.19317 67.8425 9.43115C67.6401 9.66913 67.5373 9.94972 67.5373 10.2708V13.1765H66.4383V9.67849C66.4383 9.24825 66.4247 8.78164 66.3984 8.27659H67.3643L67.4157 9.04249H67.4461C67.574 8.80451 67.7649 8.6081 68.0155 8.45117C68.3133 8.26827 68.6468 8.17578 69.0118 8.17578C69.4732 8.17578 69.857 8.32335 70.1622 8.61953C70.5418 8.98221 70.7316 9.52364 70.7316 10.2428V13.1775V13.1775Z" fill="white"/>
<path d="M73.762 13.177H72.6641V6.03027H73.762V13.177Z" fill="white"/>
<path d="M80.2324 10.6874C80.2324 11.4408 80.0153 12.0581 79.5812 12.5424C79.1261 13.0402 78.522 13.2885 77.7701 13.2885C77.0434 13.2885 76.4655 13.0506 76.0356 12.5725C75.6056 12.0955 75.3906 11.4938 75.3906 10.7684C75.3906 10.0098 75.6119 9.38732 76.0565 8.90408C76.5012 8.42085 77.0989 8.17871 77.8509 8.17871C78.5776 8.17871 79.1596 8.41669 79.6022 8.89369C80.0216 9.35718 80.2324 9.95577 80.2324 10.6874ZM79.0914 10.7227C79.0914 10.2707 78.9929 9.88302 78.7968 9.55983C78.5671 9.16908 78.2378 8.97371 77.812 8.97371C77.3695 8.97371 77.0339 9.16908 76.8043 9.55983C76.6071 9.88302 76.5096 10.2769 76.5096 10.7425C76.5096 11.1945 76.6082 11.5821 76.8043 11.9053C77.0423 12.2961 77.3737 12.4915 77.8016 12.4915C78.221 12.4915 78.5493 12.293 78.7863 11.8949C78.9908 11.5655 79.0914 11.1748 79.0914 10.7227Z" fill="white"/>
<path d="M85.5516 13.1773H84.5648L84.483 12.613H84.4526C84.1149 13.063 83.6335 13.2885 83.0085 13.2885C82.5419 13.2885 82.1643 13.1399 81.8801 12.8448C81.6222 12.5767 81.4932 12.2431 81.4932 11.8471C81.4932 11.2486 81.7448 10.7923 82.2514 10.4764C82.7568 10.1605 83.4678 10.0057 84.3834 10.0129V9.92148C84.3834 9.27612 84.0415 8.95397 83.3567 8.95397C82.869 8.95397 82.4391 9.07555 82.0678 9.31665L81.8445 8.60167C82.3038 8.32004 82.8711 8.17871 83.5402 8.17871C84.8322 8.17871 85.4803 8.8542 85.4803 10.2052V12.0093C85.4803 12.4987 85.5044 12.8884 85.5516 13.1773ZM84.4106 11.4938V10.7383C83.1983 10.7175 82.5922 11.0469 82.5922 11.7256C82.5922 11.9812 82.6614 12.1724 82.803 12.3002C82.9445 12.4281 83.1249 12.4915 83.3399 12.4915C83.5811 12.4915 83.8066 12.4156 84.0121 12.2649C84.2187 12.1132 84.3456 11.9209 84.3928 11.685C84.4043 11.632 84.4106 11.5676 84.4106 11.4938Z" fill="white"/>
<path d="M91.7972 13.177H90.8219L90.7706 12.3903H90.7401C90.4287 12.9889 89.898 13.2882 89.1524 13.2882C88.5568 13.2882 88.0607 13.0564 87.6675 12.5929C87.2742 12.1294 87.0781 11.5277 87.0781 10.7888C87.0781 9.99592 87.291 9.35368 87.7189 8.86318C88.1331 8.40592 88.6407 8.17729 89.2447 8.17729C89.9085 8.17729 90.3731 8.39865 90.6374 8.84239H90.6583V6.03027H91.7584V11.8572C91.7584 12.3342 91.771 12.7737 91.7972 13.177ZM90.6583 11.111V10.2942C90.6583 10.1528 90.6479 10.0385 90.6279 9.95123C90.5661 9.68935 90.4329 9.46904 90.2305 9.29133C90.026 9.11363 89.7795 9.02425 89.4953 9.02425C89.0853 9.02425 88.7644 9.18533 88.5285 9.50853C88.2946 9.83172 88.1761 10.2443 88.1761 10.7483C88.1761 11.2326 88.2883 11.6254 88.5138 11.9278C88.7518 12.25 89.0727 12.4111 89.4744 12.4111C89.8351 12.4111 90.1235 12.277 90.3427 12.0078C90.5545 11.7595 90.6583 11.4602 90.6583 11.111Z" fill="white"/>
<path d="M101.196 10.6874C101.196 11.4408 100.979 12.0581 100.545 12.5424C100.09 13.0402 99.488 13.2885 98.734 13.2885C98.0093 13.2885 97.4315 13.0506 96.9994 12.5725C96.5695 12.0955 96.3545 11.4938 96.3545 10.7684C96.3545 10.0098 96.5758 9.38732 97.0204 8.90408C97.4651 8.42085 98.0628 8.17871 98.8168 8.17871C99.5415 8.17871 100.126 8.41669 100.566 8.89369C100.986 9.35718 101.196 9.95577 101.196 10.6874ZM100.057 10.7227C100.057 10.2707 99.9588 9.88302 99.7627 9.55983C99.531 9.16908 99.2038 8.97371 98.7759 8.97371C98.3355 8.97371 97.9999 9.16908 97.7681 9.55983C97.571 9.88302 97.4734 10.2769 97.4734 10.7425C97.4734 11.1945 97.572 11.5821 97.7681 11.9053C98.0062 12.2961 98.3376 12.4915 98.7654 12.4915C99.1849 12.4915 99.5152 12.293 99.7522 11.8949C99.9546 11.5655 100.057 11.1748 100.057 10.7227Z" fill="white"/>
<path d="M107.106 13.1775H106.008V10.3716C106.008 9.50702 105.676 9.0747 105.01 9.0747C104.684 9.0747 104.421 9.19317 104.217 9.43115C104.014 9.66913 103.912 9.94972 103.912 10.2708V13.1765H102.812V9.67849C102.812 9.24825 102.8 8.78164 102.773 8.27659H103.738L103.79 9.04249H103.82C103.949 8.80451 104.14 8.6081 104.389 8.45117C104.688 8.26827 105.021 8.17578 105.387 8.17578C105.847 8.17578 106.231 8.32335 106.536 8.61953C106.917 8.98221 107.106 9.52364 107.106 10.2428V13.1775V13.1775Z" fill="white"/>
<path d="M114.501 9.09344H113.291V11.4732C113.291 12.0781 113.506 12.3805 113.932 12.3805C114.129 12.3805 114.292 12.3639 114.421 12.3296L114.45 13.1557C114.233 13.2368 113.947 13.2773 113.596 13.2773C113.162 13.2773 112.824 13.1464 112.58 12.8845C112.334 12.6226 112.213 12.182 112.213 11.5637V9.09344H111.49V8.27766H112.213V7.37977L113.29 7.05762V8.27662H114.5V9.09344H114.501Z" fill="white"/>
<path d="M120.32 13.177H119.22V10.3919C119.22 9.51373 118.888 9.07414 118.224 9.07414C117.715 9.07414 117.367 9.32874 117.176 9.83796C117.143 9.945 117.124 10.0759 117.124 10.2297V13.1759H116.026V6.03027H117.124V8.98269H117.145C117.491 8.44541 117.987 8.17729 118.63 8.17729C119.085 8.17729 119.462 8.32486 119.761 8.62104C120.133 8.98996 120.32 9.53867 120.32 10.264V13.177V13.177Z" fill="white"/>
<path d="M126.321 10.4957C126.321 10.6911 126.306 10.8553 126.28 10.9894H122.984C122.999 11.4737 123.156 11.8426 123.461 12.0982C123.74 12.3268 124.1 12.4412 124.54 12.4412C125.028 12.4412 125.472 12.3643 125.873 12.2094L126.045 12.966C125.576 13.1676 125.025 13.2684 124.386 13.2684C123.62 13.2684 123.017 13.0449 122.581 12.5981C122.143 12.1512 121.926 11.5516 121.926 10.7992C121.926 10.0603 122.128 9.4451 122.536 8.95459C122.962 8.43083 123.538 8.16895 124.264 8.16895C124.975 8.16895 125.515 8.43083 125.88 8.95459C126.175 9.37028 126.321 9.88469 126.321 10.4957ZM125.272 10.2141C125.281 9.89092 125.208 9.61242 125.059 9.37755C124.868 9.07514 124.578 8.92342 124.185 8.92342C123.826 8.92342 123.533 9.07098 123.31 9.36716C123.128 9.60306 123.02 9.88469 122.984 10.2141H125.272Z" fill="white"/>
</svg>
