<svg width="77" height="248" viewBox="0 0 77 248" fill="none" xmlns="http://www.w3.org/2000/svg">
<path d="M75.9971 8.70711C76.3876 8.31658 76.3876 7.68342 75.9971 7.29289L69.6331 0.928932C69.2426 0.538408 68.6094 0.538408 68.2189 0.928932C67.8284 1.31946 67.8284 1.95262 68.2189 2.34315L73.8758 8L68.2189 13.6569C67.8284 14.0474 67.8284 14.6805 68.2189 15.0711C68.6094 15.4616 69.2426 15.4616 69.6331 15.0711L75.9971 8.70711ZM0.709961 248H14V246H0.709961V248ZM39 223V32H37V223H39ZM62 9H75.29V7H62V9ZM39 32C39 19.2974 49.2974 9 62 9V7C48.1928 7 37 18.1929 37 32H39ZM14 248C27.8071 248 39 236.807 39 223H37C37 235.703 26.7025 246 14 246V248Z" fill="#F0F0F0"/>
</svg>
