<svg width="140" height="40" viewBox="0 0 140 40" fill="none" xmlns="http://www.w3.org/2000/svg">
<path d="M134.815 40H5.18518C2.33463 40 0 37.7487 0 35V5C0 2.25125 2.33463 -2.61019e-06 5.18518 -2.61019e-06H134.815C137.665 -2.61019e-06 140 2.25125 140 5V35C140 37.7487 137.665 40 134.815 40Z" fill="black"/>
<path d="M49.1744 10.244C49.1744 11.079 48.9151 11.7477 48.4044 12.2465C47.8172 12.8377 47.0524 13.1352 46.1151 13.1352C45.2194 13.1352 44.4546 12.8327 43.8272 12.2365C43.1985 11.6315 42.8848 10.889 42.8848 10.0002C42.8848 9.11148 43.1985 8.36898 43.8272 7.76898C44.4546 7.16773 45.2194 6.86523 46.1151 6.86523C46.5611 6.86523 46.9862 6.95398 47.392 7.11898C47.7964 7.28523 48.1257 7.51023 48.3642 7.78773L47.8224 8.31524C47.4062 7.84149 46.8398 7.60774 46.1151 7.60774C45.4618 7.60774 44.8953 7.82773 44.4144 8.27148C43.9387 8.71648 43.7001 9.29273 43.7001 10.0002C43.7001 10.7077 43.9387 11.289 44.4144 11.734C44.8953 12.1727 45.4618 12.3977 46.1151 12.3977C46.8087 12.3977 47.392 12.1727 47.8522 11.729C48.1555 11.4352 48.3279 11.0302 48.3733 10.5127H46.1151V9.79023H49.1277C49.164 9.94648 49.1744 10.0977 49.1744 10.244V10.244Z" fill="white" stroke="white" stroke-width="0.16" stroke-miterlimit="10"/>
<path d="M53.9532 7.74016H51.1234V9.64016H53.6745V10.3627H51.1234V12.2627H53.9532V12.9989H50.3223V7.00391H53.9532V7.74016Z" fill="white" stroke="white" stroke-width="0.16" stroke-miterlimit="10"/>
<path d="M57.3269 12.9989H56.5258V7.74016H54.79V7.00391H59.0639V7.74016H57.3269V12.9989V12.9989Z" fill="white" stroke="white" stroke-width="0.16" stroke-miterlimit="10"/>
<path d="M62.1562 12.9989V7.00391H62.9561V12.9989H62.1562Z" fill="white" stroke="white" stroke-width="0.16" stroke-miterlimit="10"/>
<path d="M66.5017 12.9989H65.7071V7.74016H63.9648V7.00391H68.2439V7.74016H66.5017V12.9989Z" fill="white" stroke="white" stroke-width="0.16" stroke-miterlimit="10"/>
<path d="M76.3349 12.2265C75.7218 12.8327 74.9621 13.1352 74.056 13.1352C73.1447 13.1352 72.3851 12.8327 71.772 12.2265C71.1601 11.6215 70.8555 10.879 70.8555 10.0002C70.8555 9.12148 71.1601 8.37898 71.772 7.77398C72.3851 7.16773 73.1447 6.86523 74.056 6.86523C74.9569 6.86523 75.7166 7.16773 76.3297 7.77898C76.9468 8.38898 77.2514 9.12648 77.2514 10.0002C77.2514 10.879 76.9468 11.6215 76.3349 12.2265ZM72.3644 11.724C72.8258 12.1727 73.3871 12.3977 74.056 12.3977C74.7197 12.3977 75.2862 12.1727 75.7425 11.724C76.2027 11.2752 76.436 10.699 76.436 10.0002C76.436 9.30148 76.2027 8.72523 75.7425 8.27648C75.2862 7.82774 74.7197 7.60273 74.056 7.60273C73.3871 7.60273 72.8258 7.82774 72.3644 8.27648C71.9042 8.72523 71.6708 9.30148 71.6708 10.0002C71.6708 10.699 71.9042 11.2752 72.3644 11.724V11.724Z" fill="white" stroke="white" stroke-width="0.16" stroke-miterlimit="10"/>
<path d="M78.375 12.9989V7.00391H79.3472L82.3702 11.6664H82.4052L82.3702 10.5139V7.00391H83.17V12.9989H82.3352L79.1696 8.10641H79.1346L79.1696 9.26391V12.9989H78.375V12.9989Z" fill="white" stroke="white" stroke-width="0.16" stroke-miterlimit="10"/>
<path d="M70.6581 21.7522C68.2223 21.7522 66.2325 23.5397 66.2325 26.0059C66.2325 28.4522 68.2223 30.2584 70.6581 30.2584C73.099 30.2584 75.0888 28.4522 75.0888 26.0059C75.0888 23.5397 73.099 21.7522 70.6581 21.7522ZM70.6581 28.5834C69.3216 28.5834 68.1718 27.5197 68.1718 26.0059C68.1718 24.4722 69.3216 23.4272 70.6581 23.4272C71.9946 23.4272 73.1496 24.4722 73.1496 26.0059C73.1496 27.5197 71.9946 28.5834 70.6581 28.5834V28.5834ZM61.002 21.7522C58.561 21.7522 56.5764 23.5397 56.5764 26.0059C56.5764 28.4522 58.561 30.2584 61.002 30.2584C63.4416 30.2584 65.4275 28.4522 65.4275 26.0059C65.4275 23.5397 63.4416 21.7522 61.002 21.7522ZM61.002 28.5834C59.6642 28.5834 58.5105 27.5197 58.5105 26.0059C58.5105 24.4722 59.6642 23.4272 61.002 23.4272C62.3384 23.4272 63.4883 24.4722 63.4883 26.0059C63.4883 27.5197 62.3384 28.5834 61.002 28.5834ZM49.5116 23.0559V24.8634H53.9877C53.8568 25.8734 53.5068 26.6159 52.9701 27.1334C52.3168 27.7584 51.2992 28.4521 49.5116 28.4521C46.757 28.4521 44.5999 26.3084 44.5999 23.6522C44.5999 20.9959 46.757 18.8522 49.5116 18.8522C51.001 18.8522 52.0848 19.4134 52.8846 20.1409L54.2055 18.8672C53.0868 17.8372 51.5986 17.0459 49.5116 17.0459C45.7342 17.0459 42.5596 20.0097 42.5596 23.6522C42.5596 27.2947 45.7342 30.2584 49.5116 30.2584C51.5533 30.2584 53.0868 29.6134 54.2923 28.4034C55.5277 27.2121 55.9127 25.5372 55.9127 24.1847C55.9127 23.7647 55.8764 23.3784 55.8116 23.0559H49.5116ZM96.4971 24.4572C96.1329 23.5059 95.009 21.7522 92.7197 21.7522C90.4512 21.7522 88.5625 23.4759 88.5625 26.0059C88.5625 28.3884 90.4318 30.2584 92.9375 30.2584C94.9636 30.2584 96.1329 29.0671 96.6138 28.3734L95.1101 27.4072C94.6084 28.1147 93.9253 28.5834 92.9375 28.5834C91.9562 28.5834 91.2523 28.1497 90.8012 27.2947L96.7007 24.9409L96.4971 24.4572V24.4572ZM90.4823 25.8734C90.4318 24.2334 91.8033 23.3934 92.7858 23.3934C93.5558 23.3934 94.2092 23.7647 94.427 24.2959L90.4823 25.8734V25.8734ZM85.6873 29.9996H87.6266V17.4997H85.6873V29.9996ZM82.5114 22.6997H82.4466C82.011 22.2022 81.1801 21.7522 80.1275 21.7522C77.9186 21.7522 75.899 23.6222 75.899 26.0197C75.899 28.4034 77.9186 30.2584 80.1275 30.2584C81.1801 30.2584 82.011 29.8046 82.4466 29.2921H82.5114V29.9022C82.5114 31.5284 81.6105 32.4021 80.1573 32.4021C78.9725 32.4021 78.2375 31.5771 77.9342 30.8834L76.2477 31.5621C76.7338 32.6896 78.021 34.0771 80.1573 34.0771C82.431 34.0771 84.3496 32.7871 84.3496 29.6484V22.0109H82.5114V22.6997V22.6997ZM80.2934 28.5834C78.957 28.5834 77.8383 27.5047 77.8383 26.0197C77.8383 24.5209 78.957 23.4272 80.2934 23.4272C81.6105 23.4272 82.6488 24.5209 82.6488 26.0197C82.6488 27.5047 81.6105 28.5834 80.2934 28.5834V28.5834ZM105.576 17.4997H100.938V29.9996H102.872V25.2634H105.576C107.724 25.2634 109.831 23.7647 109.831 21.3809C109.831 18.9984 107.719 17.4997 105.576 17.4997V17.4997ZM105.627 23.5247H102.872V19.2384H105.627C107.071 19.2384 107.895 20.3947 107.895 21.3809C107.895 22.3484 107.071 23.5247 105.627 23.5247ZM117.583 21.7284C116.185 21.7284 114.732 22.3234 114.135 23.6422L115.851 24.3359C116.22 23.6422 116.9 23.4172 117.618 23.4172C118.621 23.4172 119.639 23.9984 119.654 25.0247V25.1559C119.304 24.9609 118.555 24.6722 117.633 24.6722C115.785 24.6722 113.901 25.6534 113.901 27.4847C113.901 29.1597 115.415 30.2384 117.117 30.2384C118.419 30.2384 119.137 29.6722 119.588 29.0134H119.654V29.9796H121.522V25.1847C121.522 22.9684 119.806 21.7284 117.583 21.7284ZM117.349 28.5784C116.717 28.5784 115.835 28.2759 115.835 27.5197C115.835 26.5522 116.935 26.1809 117.886 26.1809C118.738 26.1809 119.137 26.3622 119.654 26.6009C119.503 27.7584 118.469 28.5784 117.349 28.5784V28.5784ZM128.328 22.0022L126.105 27.4209H126.038L123.74 22.0022H121.654L125.108 29.5746L123.137 33.7884H125.158L130.48 22.0022H128.328V22.0022ZM110.894 29.9996H112.833V17.4997H110.894V29.9996Z" fill="white"/>
<path d="M10.8217 7.5382C10.5171 7.8457 10.3408 8.32445 10.3408 8.94445V31.0595C10.3408 31.6795 10.5171 32.1582 10.8217 32.4657L10.8969 32.5332L23.7484 20.1457V19.8532L10.8969 7.4657L10.8217 7.5382Z" fill="url(#paint0_linear_3486_24384)"/>
<path d="M28.0271 24.2773L23.748 20.1461V19.8536L28.0323 15.7223L28.1282 15.7761L33.2019 18.5598C34.6499 19.3498 34.6499 20.6498 33.2019 21.4448L28.1282 24.2236L28.0271 24.2773V24.2773Z" fill="url(#paint1_linear_3486_24384)"/>
<path d="M28.1291 24.2245L23.7489 20.0007L10.8223 32.467C11.3032 32.9545 12.0874 33.0132 12.9793 32.5257L28.1291 24.2245" fill="url(#paint2_linear_3486_24384)"/>
<path d="M28.1291 15.7763L12.9793 7.475C12.0874 6.9925 11.3032 7.05125 10.8223 7.53875L23.7489 20L28.1291 15.7763Z" fill="url(#paint3_linear_3486_24384)"/>
<defs>
<linearGradient id="paint0_linear_3486_24384" x1="22.6074" y1="31.2898" x2="5.83604" y2="13.8973" gradientUnits="userSpaceOnUse">
<stop stop-color="#00A0FF"/>
<stop offset="0.0066" stop-color="#00A1FF"/>
<stop offset="0.2601" stop-color="#00BEFF"/>
<stop offset="0.5122" stop-color="#00D2FF"/>
<stop offset="0.7604" stop-color="#00DFFF"/>
<stop offset="1" stop-color="#00E3FF"/>
</linearGradient>
<linearGradient id="paint1_linear_3486_24384" x1="35.0874" y1="19.9984" x2="9.99435" y2="19.9984" gradientUnits="userSpaceOnUse">
<stop stop-color="#FFE000"/>
<stop offset="0.4087" stop-color="#FFBD00"/>
<stop offset="0.7754" stop-color="#FFA500"/>
<stop offset="1" stop-color="#FF9C00"/>
</linearGradient>
<linearGradient id="paint2_linear_3486_24384" x1="25.7473" y1="17.7046" x2="3.00404" y2="-5.88099" gradientUnits="userSpaceOnUse">
<stop stop-color="#FF3A44"/>
<stop offset="1" stop-color="#C31162"/>
</linearGradient>
<linearGradient id="paint3_linear_3486_24384" x1="7.56836" y1="39.8238" x2="17.7242" y2="29.2919" gradientUnits="userSpaceOnUse">
<stop stop-color="#32A071"/>
<stop offset="0.0685" stop-color="#2DA771"/>
<stop offset="0.4762" stop-color="#15CF74"/>
<stop offset="0.8009" stop-color="#06E775"/>
<stop offset="1" stop-color="#00F076"/>
</linearGradient>
</defs>
</svg>
