<svg width="32" height="32" viewBox="0 0 32 32" fill="none" xmlns="http://www.w3.org/2000/svg">
<path d="M6.66667 14.5833C9.01652 14.2866 11.2009 13.2165 12.8757 11.5417C14.5505 9.8669 15.6206 7.68254 15.9173 5.33268H6.66667V14.5833V14.5833ZM6.66667 17.2673V26.666H25.3333V5.33268H18.6C18.2917 8.39266 16.9354 11.2521 14.7608 13.4268C12.5861 15.6015 9.72665 16.9578 6.66667 17.266V17.2673ZM5.33333 2.66602H26.6667C27.0203 2.66602 27.3594 2.80649 27.6095 3.05654C27.8595 3.30659 28 3.64573 28 3.99935V27.9993C28 28.353 27.8595 28.6921 27.6095 28.9422C27.3594 29.1922 27.0203 29.3327 26.6667 29.3327H5.33333C4.97971 29.3327 4.64057 29.1922 4.39052 28.9422C4.14048 28.6921 4 28.353 4 27.9993V3.99935C4 3.64573 4.14048 3.30659 4.39052 3.05654C4.64057 2.80649 4.97971 2.66602 5.33333 2.66602V2.66602ZM20 21.3327H22.6667V23.9993H20V21.3327Z" fill="#4992BB"/>
</svg>
