<svg width="32" height="32" viewBox="0 0 32 32" fill="none" xmlns="http://www.w3.org/2000/svg">
<g clip-path="url(#clip0_3486_24340)">
<path d="M16.0003 29.3327C8.63633 29.3327 2.66699 23.3633 2.66699 15.9993C2.66699 8.63535 8.63633 2.66602 16.0003 2.66602C23.3643 2.66602 29.3337 8.63535 29.3337 15.9993C29.3337 23.3633 23.3643 29.3327 16.0003 29.3327ZM16.0003 26.666C18.8293 26.666 21.5424 25.5422 23.5428 23.5418C25.5432 21.5414 26.667 18.8283 26.667 15.9993C26.667 13.1704 25.5432 10.4573 23.5428 8.45688C21.5424 6.45649 18.8293 5.33268 16.0003 5.33268C13.1713 5.33268 10.4582 6.45649 8.45785 8.45688C6.45747 10.4573 5.33366 13.1704 5.33366 15.9993C5.33366 18.8283 6.45747 21.5414 8.45785 23.5418C10.4582 25.5422 13.1713 26.666 16.0003 26.666ZM11.3337 18.666H18.667C18.8438 18.666 19.0134 18.5958 19.1384 18.4708C19.2634 18.3457 19.3337 18.1762 19.3337 17.9993C19.3337 17.8225 19.2634 17.653 19.1384 17.5279C19.0134 17.4029 18.8438 17.3327 18.667 17.3327H13.3337C12.4496 17.3327 11.6018 16.9815 10.9766 16.3564C10.3515 15.7312 10.0003 14.8834 10.0003 13.9993C10.0003 13.1153 10.3515 12.2674 10.9766 11.6423C11.6018 11.0172 12.4496 10.666 13.3337 10.666H14.667V7.99935H17.3337V10.666H20.667V13.3327H13.3337C13.1568 13.3327 12.9873 13.4029 12.8623 13.5279C12.7372 13.653 12.667 13.8225 12.667 13.9993C12.667 14.1762 12.7372 14.3457 12.8623 14.4708C12.9873 14.5958 13.1568 14.666 13.3337 14.666H18.667C19.551 14.666 20.3989 15.0172 21.024 15.6423C21.6491 16.2674 22.0003 17.1153 22.0003 17.9993C22.0003 18.8834 21.6491 19.7312 21.024 20.3564C20.3989 20.9815 19.551 21.3327 18.667 21.3327H17.3337V23.9993H14.667V21.3327H11.3337V18.666Z" fill="#4992BB"/>
</g>
<defs>
<clipPath id="clip0_3486_24340">
<rect width="32" height="32" fill="white"/>
</clipPath>
</defs>
</svg>
