<svg width="34" height="30" viewBox="0 0 34 30" fill="none" xmlns="http://www.w3.org/2000/svg">
<path d="M31.9997 30H1.99967C1.55765 30 1.13372 29.8244 0.821163 29.5118C0.508602 29.1993 0.333008 28.7754 0.333008 28.3333V15.8117C0.332982 15.5735 0.383993 15.3381 0.482604 15.1214C0.581215 14.9046 0.725137 14.7115 0.904674 14.555L6.99967 9.24V1.66667C6.99967 1.22464 7.17527 0.800716 7.48783 0.488155C7.80039 0.175595 8.22431 0 8.66634 0H31.9997C32.4417 0 32.8656 0.175595 33.1782 0.488155C33.4907 0.800716 33.6663 1.22464 33.6663 1.66667V28.3333C33.6663 28.7754 33.4907 29.1993 33.1782 29.5118C32.8656 29.8244 32.4417 30 31.9997 30ZM11.9997 26.6667H16.9997V16.57L10.333 10.7567L3.66634 16.57V26.6667H8.66634V20H11.9997V26.6667ZM20.333 26.6667H30.333V3.33333H10.333V6.87833C10.723 6.87833 11.1147 7.015 11.428 7.29L19.7613 14.555C19.9409 14.7115 20.0848 14.9046 20.1834 15.1214C20.282 15.3381 20.333 15.5735 20.333 15.8117V26.6667ZM23.6663 13.3333H26.9997V16.6667H23.6663V13.3333ZM23.6663 20H26.9997V23.3333H23.6663V20ZM23.6663 6.66667H26.9997V10H23.6663V6.66667ZM16.9997 6.66667H20.333V10H16.9997V6.66667Z" fill="#5A839A"/>
</svg>
