<svg width="32" height="32" viewBox="0 0 32 32" fill="none" xmlns="http://www.w3.org/2000/svg">
<path d="M4.21472 5.95889C5.76148 4.41186 7.83606 3.507 10.0222 3.42589C12.2083 3.34477 14.3442 4.0934 16.0014 5.52155C17.6571 4.09578 19.7902 3.34799 21.9737 3.4279C24.1572 3.50781 26.2299 4.40951 27.777 5.95249C29.324 7.49547 30.2311 9.56585 30.3167 11.7491C30.4024 13.9324 29.6602 16.0675 28.2387 17.7269L17.8854 28.1136C17.4097 28.5894 16.7718 28.8678 16.0994 28.8931C15.4271 28.9183 14.77 28.6884 14.2601 28.2496L14.1134 28.1149L3.76139 17.7269C2.34071 16.0689 1.59816 13.9358 1.68221 11.7541C1.76626 9.57229 2.6707 7.50264 4.21472 5.95889V5.95889ZM6.10006 7.84422C5.00971 8.93487 4.38119 10.4035 4.34495 11.9452C4.3087 13.487 4.86751 14.9835 5.90539 16.1242L6.10006 16.3296L16.0001 26.2296L23.0707 19.1576L18.3574 14.4442L16.9441 15.8576C16.5727 16.2291 16.1318 16.5239 15.6465 16.725C15.1612 16.9262 14.641 17.0298 14.1157 17.0299C13.0547 17.0301 12.0371 16.6089 11.2867 15.8589C10.5363 15.1089 10.1146 14.0915 10.1144 13.0305C10.1141 11.9695 10.5354 10.9519 11.2854 10.2016L14.0881 7.39755C12.9727 6.50739 11.5766 6.04381 10.1503 6.08999C8.72401 6.13617 7.36084 6.68909 6.30539 7.64955L6.10006 7.84422V7.84422ZM17.4147 11.6149C17.6648 11.3649 18.0038 11.2245 18.3574 11.2245C18.7109 11.2245 19.05 11.3649 19.3001 11.6149L24.9561 17.2709L25.9001 16.3296C27.0087 15.2217 27.6398 13.7241 27.6585 12.157C27.6772 10.5898 27.082 9.07758 26.0001 7.94363C24.9182 6.80968 23.4356 6.14405 21.8693 6.08909C20.303 6.03413 18.7774 6.59422 17.6187 7.64955L17.4147 7.84422L13.1721 12.0869C12.941 12.3178 12.8027 12.6256 12.7835 12.9518C12.7643 13.2779 12.8656 13.5998 13.0681 13.8562L13.1721 13.9722C13.403 14.2033 13.7108 14.3416 14.0369 14.3608C14.3631 14.3799 14.685 14.2787 14.9414 14.0762L15.0574 13.9722L17.4147 11.6149V11.6149Z" fill="#4992BB"/>
</svg>
