<svg width="32" height="32" viewBox="0 0 32 32" fill="none" xmlns="http://www.w3.org/2000/svg">
<path d="M16 28C22.6274 28 28 22.6274 28 16C28 9.37258 22.6274 4 16 4C9.37258 4 4 9.37258 4 16C4 22.6274 9.37258 28 16 28Z" stroke="#5C5836" stroke-width="2" stroke-miterlimit="10"/>
<path d="M13 10.498H19L15.5008 15.499C16.0764 15.499 16.6431 15.641 17.1507 15.9123C17.6583 16.1836 18.0912 16.576 18.4109 17.0545C18.7307 17.5331 18.9275 18.0832 18.9839 18.656C19.0404 19.2288 18.9546 19.8067 18.7344 20.3384C18.5141 20.8702 18.1661 21.3394 17.7212 21.7046C17.2762 22.0697 16.7481 22.3195 16.1836 22.4318C15.6191 22.5441 15.0356 22.5154 14.4848 22.3483C13.934 22.1812 13.4329 21.8809 13.0259 21.4739" stroke="#5C5836" stroke-width="2" stroke-linecap="round" stroke-linejoin="round"/>
</svg>
