<svg width="94" height="94" viewBox="0 0 94 94" fill="none" xmlns="http://www.w3.org/2000/svg">
<g clip-path="url(#clip0_3486_24351)">
<path d="M94 0H0V94H94V0Z" fill="white"/>
<path d="M8.98562 6.14941H6.14941V8.98562H8.98562V6.14941Z" fill="black"/>
<path d="M11.8218 6.14941H8.98562V8.98562H11.8218V6.14941Z" fill="black"/>
<path d="M14.658 6.14941H11.8218V8.98562H14.658V6.14941Z" fill="black"/>
<path d="M17.4942 6.14941H14.658V8.98562H17.4942V6.14941Z" fill="black"/>
<path d="M20.3304 6.14941H17.4942V8.98562H20.3304V6.14941Z" fill="black"/>
<path d="M23.1667 6.14941H20.3304V8.98562H23.1667V6.14941Z" fill="black"/>
<path d="M26.0029 6.14941H23.1667V8.98562H26.0029V6.14941Z" fill="black"/>
<path d="M31.6753 6.14941H28.8391V8.98562H31.6753V6.14941Z" fill="black"/>
<path d="M37.3477 6.14941H34.5115V8.98562H37.3477V6.14941Z" fill="black"/>
<path d="M51.5287 6.14941H48.6925V8.98562H51.5287V6.14941Z" fill="black"/>
<path d="M54.3649 6.14941H51.5287V8.98562H54.3649V6.14941Z" fill="black"/>
<path d="M60.0373 6.14941H57.2011V8.98562H60.0373V6.14941Z" fill="black"/>
<path d="M65.7098 6.14941H62.8736V8.98562H65.7098V6.14941Z" fill="black"/>
<path d="M71.3822 6.14941H68.546V8.98562H71.3822V6.14941Z" fill="black"/>
<path d="M74.2184 6.14941H71.3822V8.98562H74.2184V6.14941Z" fill="black"/>
<path d="M77.0546 6.14941H74.2184V8.98562H77.0546V6.14941Z" fill="black"/>
<path d="M79.8908 6.14941H77.0546V8.98562H79.8908V6.14941Z" fill="black"/>
<path d="M82.727 6.14941H79.8908V8.98562H82.727V6.14941Z" fill="black"/>
<path d="M85.5632 6.14941H82.727V8.98562H85.5632V6.14941Z" fill="black"/>
<path d="M88.3994 6.14941H85.5632V8.98562H88.3994V6.14941Z" fill="black"/>
<path d="M8.98562 8.98562H6.14941V11.8218H8.98562V8.98562Z" fill="black"/>
<path d="M26.0029 8.98562H23.1667V11.8218H26.0029V8.98562Z" fill="black"/>
<path d="M34.5115 8.98562H31.6753V11.8218H34.5115V8.98562Z" fill="black"/>
<path d="M37.3477 8.98562H34.5115V11.8218H37.3477V8.98562Z" fill="black"/>
<path d="M40.1839 8.98562H37.3477V11.8218H40.1839V8.98562Z" fill="black"/>
<path d="M43.0201 8.98562H40.1839V11.8218H43.0201V8.98562Z" fill="black"/>
<path d="M48.6925 8.98562H45.8563V11.8218H48.6925V8.98562Z" fill="black"/>
<path d="M51.5287 8.98562H48.6925V11.8218H51.5287V8.98562Z" fill="black"/>
<path d="M71.3822 8.98562H68.546V11.8218H71.3822V8.98562Z" fill="black"/>
<path d="M88.3994 8.98562H85.5632V11.8218H88.3994V8.98562Z" fill="black"/>
<path d="M8.98562 11.8218H6.14941V14.658H8.98562V11.8218Z" fill="black"/>
<path d="M14.658 11.8218H11.8218V14.658H14.658V11.8218Z" fill="black"/>
<path d="M17.4942 11.8218H14.658V14.658H17.4942V11.8218Z" fill="black"/>
<path d="M20.3304 11.8218H17.4942V14.658H20.3304V11.8218Z" fill="black"/>
<path d="M26.0029 11.8218H23.1667V14.658H26.0029V11.8218Z" fill="black"/>
<path d="M37.3477 11.8218H34.5115V14.658H37.3477V11.8218Z" fill="black"/>
<path d="M40.1839 11.8218H37.3477V14.658H40.1839V11.8218Z" fill="black"/>
<path d="M43.0201 11.8218H40.1839V14.658H43.0201V11.8218Z" fill="black"/>
<path d="M45.8563 11.8218H43.0201V14.658H45.8563V11.8218Z" fill="black"/>
<path d="M51.5287 11.8218H48.6925V14.658H51.5287V11.8218Z" fill="black"/>
<path d="M54.3649 11.8218H51.5287V14.658H54.3649V11.8218Z" fill="black"/>
<path d="M62.8736 11.8218H60.0373V14.658H62.8736V11.8218Z" fill="black"/>
<path d="M65.7098 11.8218H62.8736V14.658H65.7098V11.8218Z" fill="black"/>
<path d="M71.3822 11.8218H68.546V14.658H71.3822V11.8218Z" fill="black"/>
<path d="M77.0546 11.8218H74.2184V14.658H77.0546V11.8218Z" fill="black"/>
<path d="M79.8908 11.8218H77.0546V14.658H79.8908V11.8218Z" fill="black"/>
<path d="M82.727 11.8218H79.8908V14.658H82.727V11.8218Z" fill="black"/>
<path d="M88.3994 11.8218H85.5632V14.658H88.3994V11.8218Z" fill="black"/>
<path d="M8.98562 14.658H6.14941V17.4942H8.98562V14.658Z" fill="black"/>
<path d="M14.658 14.658H11.8218V17.4942H14.658V14.658Z" fill="black"/>
<path d="M17.4942 14.658H14.658V17.4942H17.4942V14.658Z" fill="black"/>
<path d="M20.3304 14.658H17.4942V17.4942H20.3304V14.658Z" fill="black"/>
<path d="M26.0029 14.658H23.1667V17.4942H26.0029V14.658Z" fill="black"/>
<path d="M31.6753 14.658H28.8391V17.4942H31.6753V14.658Z" fill="black"/>
<path d="M34.5115 14.658H31.6753V17.4942H34.5115V14.658Z" fill="black"/>
<path d="M37.3477 14.658H34.5115V17.4942H37.3477V14.658Z" fill="black"/>
<path d="M40.1839 14.658H37.3477V17.4942H40.1839V14.658Z" fill="black"/>
<path d="M45.8563 14.658H43.0201V17.4942H45.8563V14.658Z" fill="black"/>
<path d="M54.3649 14.658H51.5287V17.4942H54.3649V14.658Z" fill="black"/>
<path d="M62.8736 14.658H60.0373V17.4942H62.8736V14.658Z" fill="black"/>
<path d="M71.3822 14.658H68.546V17.4942H71.3822V14.658Z" fill="black"/>
<path d="M77.0546 14.658H74.2184V17.4942H77.0546V14.658Z" fill="black"/>
<path d="M79.8908 14.658H77.0546V17.4942H79.8908V14.658Z" fill="black"/>
<path d="M82.727 14.658H79.8908V17.4942H82.727V14.658Z" fill="black"/>
<path d="M88.3994 14.658H85.5632V17.4942H88.3994V14.658Z" fill="black"/>
<path d="M8.98562 17.4942H6.14941V20.3304H8.98562V17.4942Z" fill="black"/>
<path d="M14.658 17.4942H11.8218V20.3304H14.658V17.4942Z" fill="black"/>
<path d="M17.4942 17.4942H14.658V20.3304H17.4942V17.4942Z" fill="black"/>
<path d="M20.3304 17.4942H17.4942V20.3304H20.3304V17.4942Z" fill="black"/>
<path d="M26.0029 17.4942H23.1667V20.3304H26.0029V17.4942Z" fill="black"/>
<path d="M45.8563 17.4942H43.0201V20.3304H45.8563V17.4942Z" fill="black"/>
<path d="M48.6925 17.4942H45.8563V20.3304H48.6925V17.4942Z" fill="black"/>
<path d="M51.5287 17.4942H48.6925V20.3304H51.5287V17.4942Z" fill="black"/>
<path d="M57.2011 17.4942H54.3649V20.3304H57.2011V17.4942Z" fill="black"/>
<path d="M71.3822 17.4942H68.546V20.3304H71.3822V17.4942Z" fill="black"/>
<path d="M77.0546 17.4942H74.2184V20.3304H77.0546V17.4942Z" fill="black"/>
<path d="M79.8908 17.4942H77.0546V20.3304H79.8908V17.4942Z" fill="black"/>
<path d="M82.727 17.4942H79.8908V20.3304H82.727V17.4942Z" fill="black"/>
<path d="M88.3994 17.4942H85.5632V20.3304H88.3994V17.4942Z" fill="black"/>
<path d="M8.98562 20.3304H6.14941V23.1667H8.98562V20.3304Z" fill="black"/>
<path d="M26.0029 20.3304H23.1667V23.1667H26.0029V20.3304Z" fill="black"/>
<path d="M31.6753 20.3304H28.8391V23.1667H31.6753V20.3304Z" fill="black"/>
<path d="M34.5115 20.3304H31.6753V23.1667H34.5115V20.3304Z" fill="black"/>
<path d="M37.3477 20.3304H34.5115V23.1667H37.3477V20.3304Z" fill="black"/>
<path d="M40.1839 20.3304H37.3477V23.1667H40.1839V20.3304Z" fill="black"/>
<path d="M43.0201 20.3304H40.1839V23.1667H43.0201V20.3304Z" fill="black"/>
<path d="M45.8563 20.3304H43.0201V23.1667H45.8563V20.3304Z" fill="black"/>
<path d="M51.5287 20.3304H48.6925V23.1667H51.5287V20.3304Z" fill="black"/>
<path d="M54.3649 20.3304H51.5287V23.1667H54.3649V20.3304Z" fill="black"/>
<path d="M71.3822 20.3304H68.546V23.1667H71.3822V20.3304Z" fill="black"/>
<path d="M88.3994 20.3304H85.5632V23.1667H88.3994V20.3304Z" fill="black"/>
<path d="M8.98562 23.1667H6.14941V26.0029H8.98562V23.1667Z" fill="black"/>
<path d="M11.8218 23.1667H8.98562V26.0029H11.8218V23.1667Z" fill="black"/>
<path d="M14.658 23.1667H11.8218V26.0029H14.658V23.1667Z" fill="black"/>
<path d="M17.4942 23.1667H14.658V26.0029H17.4942V23.1667Z" fill="black"/>
<path d="M20.3304 23.1667H17.4942V26.0029H20.3304V23.1667Z" fill="black"/>
<path d="M23.1667 23.1667H20.3304V26.0029H23.1667V23.1667Z" fill="black"/>
<path d="M26.0029 23.1667H23.1667V26.0029H26.0029V23.1667Z" fill="black"/>
<path d="M31.6753 23.1667H28.8391V26.0029H31.6753V23.1667Z" fill="black"/>
<path d="M37.3477 23.1667H34.5115V26.0029H37.3477V23.1667Z" fill="black"/>
<path d="M43.0201 23.1667H40.1839V26.0029H43.0201V23.1667Z" fill="black"/>
<path d="M48.6925 23.1667H45.8563V26.0029H48.6925V23.1667Z" fill="black"/>
<path d="M54.3649 23.1667H51.5287V26.0029H54.3649V23.1667Z" fill="black"/>
<path d="M60.0373 23.1667H57.2011V26.0029H60.0373V23.1667Z" fill="black"/>
<path d="M65.7098 23.1667H62.8736V26.0029H65.7098V23.1667Z" fill="black"/>
<path d="M71.3822 23.1667H68.546V26.0029H71.3822V23.1667Z" fill="black"/>
<path d="M74.2184 23.1667H71.3822V26.0029H74.2184V23.1667Z" fill="black"/>
<path d="M77.0546 23.1667H74.2184V26.0029H77.0546V23.1667Z" fill="black"/>
<path d="M79.8908 23.1667H77.0546V26.0029H79.8908V23.1667Z" fill="black"/>
<path d="M82.727 23.1667H79.8908V26.0029H82.727V23.1667Z" fill="black"/>
<path d="M85.5632 23.1667H82.727V26.0029H85.5632V23.1667Z" fill="black"/>
<path d="M88.3994 23.1667H85.5632V26.0029H88.3994V23.1667Z" fill="black"/>
<path d="M34.5115 26.0029H31.6753V28.8391H34.5115V26.0029Z" fill="black"/>
<path d="M48.6925 26.0029H45.8563V28.8391H48.6925V26.0029Z" fill="black"/>
<path d="M57.2011 26.0029H54.3649V28.8391H57.2011V26.0029Z" fill="black"/>
<path d="M60.0373 26.0029H57.2011V28.8391H60.0373V26.0029Z" fill="black"/>
<path d="M62.8736 26.0029H60.0373V28.8391H62.8736V26.0029Z" fill="black"/>
<path d="M65.7098 26.0029H62.8736V28.8391H65.7098V26.0029Z" fill="black"/>
<path d="M23.1667 28.8391H20.3304V31.6753H23.1667V28.8391Z" fill="black"/>
<path d="M26.0029 28.8391H23.1667V31.6753H26.0029V28.8391Z" fill="black"/>
<path d="M31.6753 28.8391H28.8391V31.6753H31.6753V28.8391Z" fill="black"/>
<path d="M34.5115 28.8391H31.6753V31.6753H34.5115V28.8391Z" fill="black"/>
<path d="M40.1839 28.8391H37.3477V31.6753H40.1839V28.8391Z" fill="black"/>
<path d="M43.0201 28.8391H40.1839V31.6753H43.0201V28.8391Z" fill="black"/>
<path d="M48.6925 28.8391H45.8563V31.6753H48.6925V28.8391Z" fill="black"/>
<path d="M51.5287 28.8391H48.6925V31.6753H51.5287V28.8391Z" fill="black"/>
<path d="M54.3649 28.8391H51.5287V31.6753H54.3649V28.8391Z" fill="black"/>
<path d="M57.2011 28.8391H54.3649V31.6753H57.2011V28.8391Z" fill="black"/>
<path d="M68.546 28.8391H65.7098V31.6753H68.546V28.8391Z" fill="black"/>
<path d="M74.2184 28.8391H71.3822V31.6753H74.2184V28.8391Z" fill="black"/>
<path d="M79.8908 28.8391H77.0546V31.6753H79.8908V28.8391Z" fill="black"/>
<path d="M88.3994 28.8391H85.5632V31.6753H88.3994V28.8391Z" fill="black"/>
<path d="M8.98562 31.6753H6.14941V34.5115H8.98562V31.6753Z" fill="black"/>
<path d="M17.4942 31.6753H14.658V34.5115H17.4942V31.6753Z" fill="black"/>
<path d="M28.8391 31.6753H26.0029V34.5115H28.8391V31.6753Z" fill="black"/>
<path d="M31.6753 31.6753H28.8391V34.5115H31.6753V31.6753Z" fill="black"/>
<path d="M34.5115 31.6753H31.6753V34.5115H34.5115V31.6753Z" fill="black"/>
<path d="M51.5287 31.6753H48.6925V34.5115H51.5287V31.6753Z" fill="black"/>
<path d="M57.2011 31.6753H54.3649V34.5115H57.2011V31.6753Z" fill="black"/>
<path d="M62.8736 31.6753H60.0373V34.5115H62.8736V31.6753Z" fill="black"/>
<path d="M68.546 31.6753H65.7098V34.5115H68.546V31.6753Z" fill="black"/>
<path d="M8.98562 34.5115H6.14941V37.3477H8.98562V34.5115Z" fill="black"/>
<path d="M17.4942 34.5115H14.658V37.3477H17.4942V34.5115Z" fill="black"/>
<path d="M20.3304 34.5115H17.4942V37.3477H20.3304V34.5115Z" fill="black"/>
<path d="M26.0029 34.5115H23.1667V37.3477H26.0029V34.5115Z" fill="black"/>
<path d="M28.8391 34.5115H26.0029V37.3477H28.8391V34.5115Z" fill="black"/>
<path d="M31.6753 34.5115H28.8391V37.3477H31.6753V34.5115Z" fill="black"/>
<path d="M37.3477 34.5115H34.5115V37.3477H37.3477V34.5115Z" fill="black"/>
<path d="M43.0201 34.5115H40.1839V37.3477H43.0201V34.5115Z" fill="black"/>
<path d="M51.5287 34.5115H48.6925V37.3477H51.5287V34.5115Z" fill="black"/>
<path d="M60.0373 34.5115H57.2011V37.3477H60.0373V34.5115Z" fill="black"/>
<path d="M65.7098 34.5115H62.8736V37.3477H65.7098V34.5115Z" fill="black"/>
<path d="M71.3822 34.5115H68.546V37.3477H71.3822V34.5115Z" fill="black"/>
<path d="M77.0546 34.5115H74.2184V37.3477H77.0546V34.5115Z" fill="black"/>
<path d="M82.727 34.5115H79.8908V37.3477H82.727V34.5115Z" fill="black"/>
<path d="M88.3994 34.5115H85.5632V37.3477H88.3994V34.5115Z" fill="black"/>
<path d="M23.1667 37.3477H20.3304V40.1839H23.1667V37.3477Z" fill="black"/>
<path d="M37.3477 37.3477H34.5115V40.1839H37.3477V37.3477Z" fill="black"/>
<path d="M45.8563 37.3477H43.0201V40.1839H45.8563V37.3477Z" fill="black"/>
<path d="M48.6925 37.3477H45.8563V40.1839H48.6925V37.3477Z" fill="black"/>
<path d="M54.3649 37.3477H51.5287V40.1839H54.3649V37.3477Z" fill="black"/>
<path d="M60.0373 37.3477H57.2011V40.1839H60.0373V37.3477Z" fill="black"/>
<path d="M62.8736 37.3477H60.0373V40.1839H62.8736V37.3477Z" fill="black"/>
<path d="M65.7098 37.3477H62.8736V40.1839H65.7098V37.3477Z" fill="black"/>
<path d="M68.546 37.3477H65.7098V40.1839H68.546V37.3477Z" fill="black"/>
<path d="M74.2184 37.3477H71.3822V40.1839H74.2184V37.3477Z" fill="black"/>
<path d="M77.0546 37.3477H74.2184V40.1839H77.0546V37.3477Z" fill="black"/>
<path d="M14.658 40.1839H11.8218V43.0201H14.658V40.1839Z" fill="black"/>
<path d="M26.0029 40.1839H23.1667V43.0201H26.0029V40.1839Z" fill="black"/>
<path d="M31.6753 40.1839H28.8391V43.0201H31.6753V40.1839Z" fill="black"/>
<path d="M34.5115 40.1839H31.6753V43.0201H34.5115V40.1839Z" fill="black"/>
<path d="M37.3477 40.1839H34.5115V43.0201H37.3477V40.1839Z" fill="black"/>
<path d="M40.1839 40.1839H37.3477V43.0201H40.1839V40.1839Z" fill="black"/>
<path d="M43.0201 40.1839H40.1839V43.0201H43.0201V40.1839Z" fill="black"/>
<path d="M48.6925 40.1839H45.8563V43.0201H48.6925V40.1839Z" fill="black"/>
<path d="M51.5287 40.1839H48.6925V43.0201H51.5287V40.1839Z" fill="black"/>
<path d="M60.0373 40.1839H57.2011V43.0201H60.0373V40.1839Z" fill="black"/>
<path d="M62.8736 40.1839H60.0373V43.0201H62.8736V40.1839Z" fill="black"/>
<path d="M71.3822 40.1839H68.546V43.0201H71.3822V40.1839Z" fill="black"/>
<path d="M77.0546 40.1839H74.2184V43.0201H77.0546V40.1839Z" fill="black"/>
<path d="M82.727 40.1839H79.8908V43.0201H82.727V40.1839Z" fill="black"/>
<path d="M88.3994 40.1839H85.5632V43.0201H88.3994V40.1839Z" fill="black"/>
<path d="M8.98562 43.0201H6.14941V45.8563H8.98562V43.0201Z" fill="black"/>
<path d="M11.8218 43.0201H8.98562V45.8563H11.8218V43.0201Z" fill="black"/>
<path d="M14.658 43.0201H11.8218V45.8563H14.658V43.0201Z" fill="black"/>
<path d="M17.4942 43.0201H14.658V45.8563H17.4942V43.0201Z" fill="black"/>
<path d="M20.3304 43.0201H17.4942V45.8563H20.3304V43.0201Z" fill="black"/>
<path d="M23.1667 43.0201H20.3304V45.8563H23.1667V43.0201Z" fill="black"/>
<path d="M51.5287 43.0201H48.6925V45.8563H51.5287V43.0201Z" fill="black"/>
<path d="M54.3649 43.0201H51.5287V45.8563H54.3649V43.0201Z" fill="black"/>
<path d="M60.0373 43.0201H57.2011V45.8563H60.0373V43.0201Z" fill="black"/>
<path d="M62.8736 43.0201H60.0373V45.8563H62.8736V43.0201Z" fill="black"/>
<path d="M68.546 43.0201H65.7098V45.8563H68.546V43.0201Z" fill="black"/>
<path d="M71.3822 43.0201H68.546V45.8563H71.3822V43.0201Z" fill="black"/>
<path d="M74.2184 43.0201H71.3822V45.8563H74.2184V43.0201Z" fill="black"/>
<path d="M85.5632 43.0201H82.727V45.8563H85.5632V43.0201Z" fill="black"/>
<path d="M88.3994 43.0201H85.5632V45.8563H88.3994V43.0201Z" fill="black"/>
<path d="M11.8218 45.8563H8.98562V48.6925H11.8218V45.8563Z" fill="black"/>
<path d="M17.4942 45.8563H14.658V48.6925H17.4942V45.8563Z" fill="black"/>
<path d="M20.3304 45.8563H17.4942V48.6925H20.3304V45.8563Z" fill="black"/>
<path d="M23.1667 45.8563H20.3304V48.6925H23.1667V45.8563Z" fill="black"/>
<path d="M26.0029 45.8563H23.1667V48.6925H26.0029V45.8563Z" fill="black"/>
<path d="M28.8391 45.8563H26.0029V48.6925H28.8391V45.8563Z" fill="black"/>
<path d="M34.5115 45.8563H31.6753V48.6925H34.5115V45.8563Z" fill="black"/>
<path d="M40.1839 45.8563H37.3477V48.6925H40.1839V45.8563Z" fill="black"/>
<path d="M51.5287 45.8563H48.6925V48.6925H51.5287V45.8563Z" fill="black"/>
<path d="M54.3649 45.8563H51.5287V48.6925H54.3649V45.8563Z" fill="black"/>
<path d="M65.7098 45.8563H62.8736V48.6925H65.7098V45.8563Z" fill="black"/>
<path d="M71.3822 45.8563H68.546V48.6925H71.3822V45.8563Z" fill="black"/>
<path d="M77.0546 45.8563H74.2184V48.6925H77.0546V45.8563Z" fill="black"/>
<path d="M79.8908 45.8563H77.0546V48.6925H79.8908V45.8563Z" fill="black"/>
<path d="M88.3994 45.8563H85.5632V48.6925H88.3994V45.8563Z" fill="black"/>
<path d="M11.8218 48.6925H8.98562V51.5287H11.8218V48.6925Z" fill="black"/>
<path d="M17.4942 48.6925H14.658V51.5287H17.4942V48.6925Z" fill="black"/>
<path d="M31.6753 48.6925H28.8391V51.5287H31.6753V48.6925Z" fill="black"/>
<path d="M34.5115 48.6925H31.6753V51.5287H34.5115V48.6925Z" fill="black"/>
<path d="M40.1839 48.6925H37.3477V51.5287H40.1839V48.6925Z" fill="black"/>
<path d="M45.8563 48.6925H43.0201V51.5287H45.8563V48.6925Z" fill="black"/>
<path d="M48.6925 48.6925H45.8563V51.5287H48.6925V48.6925Z" fill="black"/>
<path d="M54.3649 48.6925H51.5287V51.5287H54.3649V48.6925Z" fill="black"/>
<path d="M57.2011 48.6925H54.3649V51.5287H57.2011V48.6925Z" fill="black"/>
<path d="M62.8736 48.6925H60.0373V51.5287H62.8736V48.6925Z" fill="black"/>
<path d="M68.546 48.6925H65.7098V51.5287H68.546V48.6925Z" fill="black"/>
<path d="M71.3822 48.6925H68.546V51.5287H71.3822V48.6925Z" fill="black"/>
<path d="M77.0546 48.6925H74.2184V51.5287H77.0546V48.6925Z" fill="black"/>
<path d="M79.8908 48.6925H77.0546V51.5287H79.8908V48.6925Z" fill="black"/>
<path d="M85.5632 48.6925H82.727V51.5287H85.5632V48.6925Z" fill="black"/>
<path d="M8.98562 51.5287H6.14941V54.3649H8.98562V51.5287Z" fill="black"/>
<path d="M14.658 51.5287H11.8218V54.3649H14.658V51.5287Z" fill="black"/>
<path d="M20.3304 51.5287H17.4942V54.3649H20.3304V51.5287Z" fill="black"/>
<path d="M26.0029 51.5287H23.1667V54.3649H26.0029V51.5287Z" fill="black"/>
<path d="M37.3477 51.5287H34.5115V54.3649H37.3477V51.5287Z" fill="black"/>
<path d="M43.0201 51.5287H40.1839V54.3649H43.0201V51.5287Z" fill="black"/>
<path d="M48.6925 51.5287H45.8563V54.3649H48.6925V51.5287Z" fill="black"/>
<path d="M51.5287 51.5287H48.6925V54.3649H51.5287V51.5287Z" fill="black"/>
<path d="M54.3649 51.5287H51.5287V54.3649H54.3649V51.5287Z" fill="black"/>
<path d="M62.8736 51.5287H60.0373V54.3649H62.8736V51.5287Z" fill="black"/>
<path d="M65.7098 51.5287H62.8736V54.3649H65.7098V51.5287Z" fill="black"/>
<path d="M68.546 51.5287H65.7098V54.3649H68.546V51.5287Z" fill="black"/>
<path d="M74.2184 51.5287H71.3822V54.3649H74.2184V51.5287Z" fill="black"/>
<path d="M79.8908 51.5287H77.0546V54.3649H79.8908V51.5287Z" fill="black"/>
<path d="M11.8218 54.3649H8.98562V57.2011H11.8218V54.3649Z" fill="black"/>
<path d="M14.658 54.3649H11.8218V57.2011H14.658V54.3649Z" fill="black"/>
<path d="M28.8391 54.3649H26.0029V57.2011H28.8391V54.3649Z" fill="black"/>
<path d="M37.3477 54.3649H34.5115V57.2011H37.3477V54.3649Z" fill="black"/>
<path d="M43.0201 54.3649H40.1839V57.2011H43.0201V54.3649Z" fill="black"/>
<path d="M45.8563 54.3649H43.0201V57.2011H45.8563V54.3649Z" fill="black"/>
<path d="M51.5287 54.3649H48.6925V57.2011H51.5287V54.3649Z" fill="black"/>
<path d="M54.3649 54.3649H51.5287V57.2011H54.3649V54.3649Z" fill="black"/>
<path d="M60.0373 54.3649H57.2011V57.2011H60.0373V54.3649Z" fill="black"/>
<path d="M62.8736 54.3649H60.0373V57.2011H62.8736V54.3649Z" fill="black"/>
<path d="M71.3822 54.3649H68.546V57.2011H71.3822V54.3649Z" fill="black"/>
<path d="M8.98562 57.2011H6.14941V60.0373H8.98562V57.2011Z" fill="black"/>
<path d="M11.8218 57.2011H8.98562V60.0373H11.8218V57.2011Z" fill="black"/>
<path d="M14.658 57.2011H11.8218V60.0373H14.658V57.2011Z" fill="black"/>
<path d="M17.4942 57.2011H14.658V60.0373H17.4942V57.2011Z" fill="black"/>
<path d="M20.3304 57.2011H17.4942V60.0373H20.3304V57.2011Z" fill="black"/>
<path d="M26.0029 57.2011H23.1667V60.0373H26.0029V57.2011Z" fill="black"/>
<path d="M28.8391 57.2011H26.0029V60.0373H28.8391V57.2011Z" fill="black"/>
<path d="M31.6753 57.2011H28.8391V60.0373H31.6753V57.2011Z" fill="black"/>
<path d="M45.8563 57.2011H43.0201V60.0373H45.8563V57.2011Z" fill="black"/>
<path d="M51.5287 57.2011H48.6925V60.0373H51.5287V57.2011Z" fill="black"/>
<path d="M57.2011 57.2011H54.3649V60.0373H57.2011V57.2011Z" fill="black"/>
<path d="M60.0373 57.2011H57.2011V60.0373H60.0373V57.2011Z" fill="black"/>
<path d="M62.8736 57.2011H60.0373V60.0373H62.8736V57.2011Z" fill="black"/>
<path d="M65.7098 57.2011H62.8736V60.0373H65.7098V57.2011Z" fill="black"/>
<path d="M74.2184 57.2011H71.3822V60.0373H74.2184V57.2011Z" fill="black"/>
<path d="M77.0546 57.2011H74.2184V60.0373H77.0546V57.2011Z" fill="black"/>
<path d="M8.98562 60.0373H6.14941V62.8736H8.98562V60.0373Z" fill="black"/>
<path d="M23.1667 60.0373H20.3304V62.8736H23.1667V60.0373Z" fill="black"/>
<path d="M31.6753 60.0373H28.8391V62.8736H31.6753V60.0373Z" fill="black"/>
<path d="M37.3477 60.0373H34.5115V62.8736H37.3477V60.0373Z" fill="black"/>
<path d="M40.1839 60.0373H37.3477V62.8736H40.1839V60.0373Z" fill="black"/>
<path d="M45.8563 60.0373H43.0201V62.8736H45.8563V60.0373Z" fill="black"/>
<path d="M62.8736 60.0373H60.0373V62.8736H62.8736V60.0373Z" fill="black"/>
<path d="M79.8908 60.0373H77.0546V62.8736H79.8908V60.0373Z" fill="black"/>
<path d="M82.727 60.0373H79.8908V62.8736H82.727V60.0373Z" fill="black"/>
<path d="M85.5632 60.0373H82.727V62.8736H85.5632V60.0373Z" fill="black"/>
<path d="M14.658 62.8736H11.8218V65.7098H14.658V62.8736Z" fill="black"/>
<path d="M26.0029 62.8736H23.1667V65.7098H26.0029V62.8736Z" fill="black"/>
<path d="M34.5115 62.8736H31.6753V65.7098H34.5115V62.8736Z" fill="black"/>
<path d="M37.3477 62.8736H34.5115V65.7098H37.3477V62.8736Z" fill="black"/>
<path d="M45.8563 62.8736H43.0201V65.7098H45.8563V62.8736Z" fill="black"/>
<path d="M51.5287 62.8736H48.6925V65.7098H51.5287V62.8736Z" fill="black"/>
<path d="M54.3649 62.8736H51.5287V65.7098H54.3649V62.8736Z" fill="black"/>
<path d="M57.2011 62.8736H54.3649V65.7098H57.2011V62.8736Z" fill="black"/>
<path d="M65.7098 62.8736H62.8736V65.7098H65.7098V62.8736Z" fill="black"/>
<path d="M68.546 62.8736H65.7098V65.7098H68.546V62.8736Z" fill="black"/>
<path d="M71.3822 62.8736H68.546V65.7098H71.3822V62.8736Z" fill="black"/>
<path d="M74.2184 62.8736H71.3822V65.7098H74.2184V62.8736Z" fill="black"/>
<path d="M77.0546 62.8736H74.2184V65.7098H77.0546V62.8736Z" fill="black"/>
<path d="M85.5632 62.8736H82.727V65.7098H85.5632V62.8736Z" fill="black"/>
<path d="M88.3994 62.8736H85.5632V65.7098H88.3994V62.8736Z" fill="black"/>
<path d="M31.6753 65.7098H28.8391V68.546H31.6753V65.7098Z" fill="black"/>
<path d="M43.0201 65.7098H40.1839V68.546H43.0201V65.7098Z" fill="black"/>
<path d="M48.6925 65.7098H45.8563V68.546H48.6925V65.7098Z" fill="black"/>
<path d="M51.5287 65.7098H48.6925V68.546H51.5287V65.7098Z" fill="black"/>
<path d="M54.3649 65.7098H51.5287V68.546H54.3649V65.7098Z" fill="black"/>
<path d="M57.2011 65.7098H54.3649V68.546H57.2011V65.7098Z" fill="black"/>
<path d="M60.0373 65.7098H57.2011V68.546H60.0373V65.7098Z" fill="black"/>
<path d="M65.7098 65.7098H62.8736V68.546H65.7098V65.7098Z" fill="black"/>
<path d="M77.0546 65.7098H74.2184V68.546H77.0546V65.7098Z" fill="black"/>
<path d="M82.727 65.7098H79.8908V68.546H82.727V65.7098Z" fill="black"/>
<path d="M85.5632 65.7098H82.727V68.546H85.5632V65.7098Z" fill="black"/>
<path d="M8.98562 68.546H6.14941V71.3822H8.98562V68.546Z" fill="black"/>
<path d="M11.8218 68.546H8.98562V71.3822H11.8218V68.546Z" fill="black"/>
<path d="M14.658 68.546H11.8218V71.3822H14.658V68.546Z" fill="black"/>
<path d="M17.4942 68.546H14.658V71.3822H17.4942V68.546Z" fill="black"/>
<path d="M20.3304 68.546H17.4942V71.3822H20.3304V68.546Z" fill="black"/>
<path d="M23.1667 68.546H20.3304V71.3822H23.1667V68.546Z" fill="black"/>
<path d="M26.0029 68.546H23.1667V71.3822H26.0029V68.546Z" fill="black"/>
<path d="M34.5115 68.546H31.6753V71.3822H34.5115V68.546Z" fill="black"/>
<path d="M40.1839 68.546H37.3477V71.3822H40.1839V68.546Z" fill="black"/>
<path d="M43.0201 68.546H40.1839V71.3822H43.0201V68.546Z" fill="black"/>
<path d="M48.6925 68.546H45.8563V71.3822H48.6925V68.546Z" fill="black"/>
<path d="M57.2011 68.546H54.3649V71.3822H57.2011V68.546Z" fill="black"/>
<path d="M65.7098 68.546H62.8736V71.3822H65.7098V68.546Z" fill="black"/>
<path d="M71.3822 68.546H68.546V71.3822H71.3822V68.546Z" fill="black"/>
<path d="M77.0546 68.546H74.2184V71.3822H77.0546V68.546Z" fill="black"/>
<path d="M79.8908 68.546H77.0546V71.3822H79.8908V68.546Z" fill="black"/>
<path d="M88.3994 68.546H85.5632V71.3822H88.3994V68.546Z" fill="black"/>
<path d="M8.98562 71.3822H6.14941V74.2184H8.98562V71.3822Z" fill="black"/>
<path d="M26.0029 71.3822H23.1667V74.2184H26.0029V71.3822Z" fill="black"/>
<path d="M31.6753 71.3822H28.8391V74.2184H31.6753V71.3822Z" fill="black"/>
<path d="M37.3477 71.3822H34.5115V74.2184H37.3477V71.3822Z" fill="black"/>
<path d="M40.1839 71.3822H37.3477V74.2184H40.1839V71.3822Z" fill="black"/>
<path d="M45.8563 71.3822H43.0201V74.2184H45.8563V71.3822Z" fill="black"/>
<path d="M57.2011 71.3822H54.3649V74.2184H57.2011V71.3822Z" fill="black"/>
<path d="M60.0373 71.3822H57.2011V74.2184H60.0373V71.3822Z" fill="black"/>
<path d="M62.8736 71.3822H60.0373V74.2184H62.8736V71.3822Z" fill="black"/>
<path d="M65.7098 71.3822H62.8736V74.2184H65.7098V71.3822Z" fill="black"/>
<path d="M77.0546 71.3822H74.2184V74.2184H77.0546V71.3822Z" fill="black"/>
<path d="M79.8908 71.3822H77.0546V74.2184H79.8908V71.3822Z" fill="black"/>
<path d="M85.5632 71.3822H82.727V74.2184H85.5632V71.3822Z" fill="black"/>
<path d="M8.98562 74.2184H6.14941V77.0546H8.98562V74.2184Z" fill="black"/>
<path d="M14.658 74.2184H11.8218V77.0546H14.658V74.2184Z" fill="black"/>
<path d="M17.4942 74.2184H14.658V77.0546H17.4942V74.2184Z" fill="black"/>
<path d="M20.3304 74.2184H17.4942V77.0546H20.3304V74.2184Z" fill="black"/>
<path d="M26.0029 74.2184H23.1667V77.0546H26.0029V74.2184Z" fill="black"/>
<path d="M37.3477 74.2184H34.5115V77.0546H37.3477V74.2184Z" fill="black"/>
<path d="M40.1839 74.2184H37.3477V77.0546H40.1839V74.2184Z" fill="black"/>
<path d="M48.6925 74.2184H45.8563V77.0546H48.6925V74.2184Z" fill="black"/>
<path d="M51.5287 74.2184H48.6925V77.0546H51.5287V74.2184Z" fill="black"/>
<path d="M60.0373 74.2184H57.2011V77.0546H60.0373V74.2184Z" fill="black"/>
<path d="M62.8736 74.2184H60.0373V77.0546H62.8736V74.2184Z" fill="black"/>
<path d="M65.7098 74.2184H62.8736V77.0546H65.7098V74.2184Z" fill="black"/>
<path d="M68.546 74.2184H65.7098V77.0546H68.546V74.2184Z" fill="black"/>
<path d="M71.3822 74.2184H68.546V77.0546H71.3822V74.2184Z" fill="black"/>
<path d="M74.2184 74.2184H71.3822V77.0546H74.2184V74.2184Z" fill="black"/>
<path d="M77.0546 74.2184H74.2184V77.0546H77.0546V74.2184Z" fill="black"/>
<path d="M79.8908 74.2184H77.0546V77.0546H79.8908V74.2184Z" fill="black"/>
<path d="M82.727 74.2184H79.8908V77.0546H82.727V74.2184Z" fill="black"/>
<path d="M85.5632 74.2184H82.727V77.0546H85.5632V74.2184Z" fill="black"/>
<path d="M88.3994 74.2184H85.5632V77.0546H88.3994V74.2184Z" fill="black"/>
<path d="M8.98562 77.0546H6.14941V79.8908H8.98562V77.0546Z" fill="black"/>
<path d="M14.658 77.0546H11.8218V79.8908H14.658V77.0546Z" fill="black"/>
<path d="M17.4942 77.0546H14.658V79.8908H17.4942V77.0546Z" fill="black"/>
<path d="M20.3304 77.0546H17.4942V79.8908H20.3304V77.0546Z" fill="black"/>
<path d="M26.0029 77.0546H23.1667V79.8908H26.0029V77.0546Z" fill="black"/>
<path d="M34.5115 77.0546H31.6753V79.8908H34.5115V77.0546Z" fill="black"/>
<path d="M37.3477 77.0546H34.5115V79.8908H37.3477V77.0546Z" fill="black"/>
<path d="M40.1839 77.0546H37.3477V79.8908H40.1839V77.0546Z" fill="black"/>
<path d="M43.0201 77.0546H40.1839V79.8908H43.0201V77.0546Z" fill="black"/>
<path d="M51.5287 77.0546H48.6925V79.8908H51.5287V77.0546Z" fill="black"/>
<path d="M54.3649 77.0546H51.5287V79.8908H54.3649V77.0546Z" fill="black"/>
<path d="M60.0373 77.0546H57.2011V79.8908H60.0373V77.0546Z" fill="black"/>
<path d="M77.0546 77.0546H74.2184V79.8908H77.0546V77.0546Z" fill="black"/>
<path d="M79.8908 77.0546H77.0546V79.8908H79.8908V77.0546Z" fill="black"/>
<path d="M8.98562 79.8908H6.14941V82.727H8.98562V79.8908Z" fill="black"/>
<path d="M14.658 79.8908H11.8218V82.727H14.658V79.8908Z" fill="black"/>
<path d="M17.4942 79.8908H14.658V82.727H17.4942V79.8908Z" fill="black"/>
<path d="M20.3304 79.8908H17.4942V82.727H20.3304V79.8908Z" fill="black"/>
<path d="M26.0029 79.8908H23.1667V82.727H26.0029V79.8908Z" fill="black"/>
<path d="M37.3477 79.8908H34.5115V82.727H37.3477V79.8908Z" fill="black"/>
<path d="M40.1839 79.8908H37.3477V82.727H40.1839V79.8908Z" fill="black"/>
<path d="M45.8563 79.8908H43.0201V82.727H45.8563V79.8908Z" fill="black"/>
<path d="M48.6925 79.8908H45.8563V82.727H48.6925V79.8908Z" fill="black"/>
<path d="M65.7098 79.8908H62.8736V82.727H65.7098V79.8908Z" fill="black"/>
<path d="M68.546 79.8908H65.7098V82.727H68.546V79.8908Z" fill="black"/>
<path d="M74.2184 79.8908H71.3822V82.727H74.2184V79.8908Z" fill="black"/>
<path d="M8.98562 82.727H6.14941V85.5632H8.98562V82.727Z" fill="black"/>
<path d="M26.0029 82.727H23.1667V85.5632H26.0029V82.727Z" fill="black"/>
<path d="M37.3477 82.727H34.5115V85.5632H37.3477V82.727Z" fill="black"/>
<path d="M40.1839 82.727H37.3477V85.5632H40.1839V82.727Z" fill="black"/>
<path d="M43.0201 82.727H40.1839V85.5632H43.0201V82.727Z" fill="black"/>
<path d="M48.6925 82.727H45.8563V85.5632H48.6925V82.727Z" fill="black"/>
<path d="M51.5287 82.727H48.6925V85.5632H51.5287V82.727Z" fill="black"/>
<path d="M54.3649 82.727H51.5287V85.5632H54.3649V82.727Z" fill="black"/>
<path d="M60.0373 82.727H57.2011V85.5632H60.0373V82.727Z" fill="black"/>
<path d="M62.8736 82.727H60.0373V85.5632H62.8736V82.727Z" fill="black"/>
<path d="M68.546 82.727H65.7098V85.5632H68.546V82.727Z" fill="black"/>
<path d="M71.3822 82.727H68.546V85.5632H71.3822V82.727Z" fill="black"/>
<path d="M74.2184 82.727H71.3822V85.5632H74.2184V82.727Z" fill="black"/>
<path d="M77.0546 82.727H74.2184V85.5632H77.0546V82.727Z" fill="black"/>
<path d="M85.5632 82.727H82.727V85.5632H85.5632V82.727Z" fill="black"/>
<path d="M88.3994 82.727H85.5632V85.5632H88.3994V82.727Z" fill="black"/>
<path d="M8.98562 85.5632H6.14941V88.3994H8.98562V85.5632Z" fill="black"/>
<path d="M11.8218 85.5632H8.98562V88.3994H11.8218V85.5632Z" fill="black"/>
<path d="M14.658 85.5632H11.8218V88.3994H14.658V85.5632Z" fill="black"/>
<path d="M17.4942 85.5632H14.658V88.3994H17.4942V85.5632Z" fill="black"/>
<path d="M20.3304 85.5632H17.4942V88.3994H20.3304V85.5632Z" fill="black"/>
<path d="M23.1667 85.5632H20.3304V88.3994H23.1667V85.5632Z" fill="black"/>
<path d="M26.0029 85.5632H23.1667V88.3994H26.0029V85.5632Z" fill="black"/>
<path d="M34.5115 85.5632H31.6753V88.3994H34.5115V85.5632Z" fill="black"/>
<path d="M43.0201 85.5632H40.1839V88.3994H43.0201V85.5632Z" fill="black"/>
<path d="M48.6925 85.5632H45.8563V88.3994H48.6925V85.5632Z" fill="black"/>
<path d="M57.2011 85.5632H54.3649V88.3994H57.2011V85.5632Z" fill="black"/>
<path d="M60.0373 85.5632H57.2011V88.3994H60.0373V85.5632Z" fill="black"/>
<path d="M62.8736 85.5632H60.0373V88.3994H62.8736V85.5632Z" fill="black"/>
<path d="M68.546 85.5632H65.7098V88.3994H68.546V85.5632Z" fill="black"/>
<path d="M79.8908 85.5632H77.0546V88.3994H79.8908V85.5632Z" fill="black"/>
<path d="M82.727 85.5632H79.8908V88.3994H82.727V85.5632Z" fill="black"/>
</g>
<defs>
<clipPath id="clip0_3486_24351">
<rect width="94" height="94" fill="white"/>
</clipPath>
</defs>
</svg>
