<svg width="32" height="32" viewBox="0 0 32 32" fill="none" xmlns="http://www.w3.org/2000/svg">
<g clip-path="url(#clip0_3207_23784)">
<path d="M4.00008 4H28.0001C28.3537 4 28.6928 4.14048 28.9429 4.39052C29.1929 4.64057 29.3334 4.97971 29.3334 5.33333V26.6667C29.3334 27.0203 29.1929 27.3594 28.9429 27.6095C28.6928 27.8595 28.3537 28 28.0001 28H4.00008C3.64646 28 3.30732 27.8595 3.05727 27.6095C2.80722 27.3594 2.66675 27.0203 2.66675 26.6667V5.33333C2.66675 4.97971 2.80722 4.64057 3.05727 4.39052C3.30732 4.14048 3.64646 4 4.00008 4ZM5.33341 6.66667V25.3333H26.6667V6.66667H5.33341ZM16.0001 20H24.0001V22.6667H16.0001V20ZM11.5561 16L7.78408 12.2293L9.67075 10.3427L15.3267 16L9.67075 21.6573L7.78408 19.7707L11.5561 16Z" fill="#5C5836"/>
</g>
<defs>
<clipPath id="clip0_3207_23784">
<rect width="32" height="32" fill="white"/>
</clipPath>
</defs>
</svg>
