<svg width="31" height="25" viewBox="0 0 31 25" fill="none" xmlns="http://www.w3.org/2000/svg">
<path d="M5.95638 8.99962C6.31 8.99962 6.64914 9.14009 6.89919 9.39014C7.14924 9.64019 7.28971 9.97933 7.28971 10.3329C9.38457 10.3299 11.419 11.0346 13.063 12.3329H15.9564C17.7324 12.3329 19.3297 13.1049 20.427 14.3316L24.623 14.3329C25.8834 14.3326 27.118 14.6895 28.1838 15.3623C29.2495 16.0352 30.1027 16.9963 30.6444 18.1343C27.491 22.2956 22.3857 24.9996 16.623 24.9996C12.903 24.9996 9.75638 24.1956 7.20971 22.7889C7.11644 23.0464 6.94603 23.2687 6.72174 23.4257C6.49744 23.5828 6.23017 23.6667 5.95638 23.6663H1.95638C1.60276 23.6663 1.26362 23.5258 1.01357 23.2758C0.763523 23.0257 0.623047 22.6866 0.623047 22.333V10.3329C0.623047 9.97933 0.763523 9.64019 1.01357 9.39014C1.26362 9.14009 1.60276 8.99962 1.95638 8.99962H5.95638ZM7.29105 12.9996L7.28971 19.6943L7.34971 19.7383C9.74305 21.4183 12.8604 22.333 16.623 22.333C20.6284 22.333 24.355 20.7916 27.0697 18.1596L27.247 17.9823L27.087 17.8489C26.4574 17.3558 25.6943 17.0632 24.8964 17.0089L24.623 16.9996L21.807 16.9983C21.9044 17.4276 21.9564 17.8743 21.9564 18.333V19.6663H9.95638V16.9996L19.0097 16.9983L18.9644 16.8943C18.7089 16.3603 18.3158 15.904 17.8256 15.5722C17.3354 15.2404 16.7657 15.0451 16.175 15.0063L15.9564 14.9996H12.0497C11.4301 14.3659 10.6901 13.8625 9.87308 13.5191C9.05608 13.1756 8.17864 12.999 7.29238 12.9996H7.29105ZM4.62305 11.6663H3.28971V20.9996H4.62305V11.6663ZM17.4844 1.76628L17.9564 2.23962L18.4284 1.76762C18.7375 1.45591 19.1051 1.20832 19.5101 1.03906C19.9151 0.869799 20.3496 0.782205 20.7885 0.781307C21.2275 0.780408 21.6623 0.866222 22.068 1.03382C22.4738 1.20142 22.8424 1.4475 23.1527 1.75794C23.4631 2.06838 23.7091 2.43707 23.8765 2.84283C24.044 3.24859 24.1297 3.68343 24.1287 4.1224C24.1277 4.56137 24.0399 4.99581 23.8706 5.40078C23.7012 5.80576 23.4535 6.17329 23.1417 6.48228L17.9564 11.6663L12.7697 6.47962C12.458 6.17054 12.2104 5.80293 12.0412 5.39791C11.8719 4.99289 11.7843 4.55842 11.7834 4.11945C11.7825 3.68049 11.8683 3.24567 12.0359 2.83995C12.2035 2.43424 12.4496 2.06563 12.76 1.75527C13.0705 1.44492 13.4392 1.19894 13.8449 1.03146C14.2507 0.863973 14.6855 0.778283 15.1245 0.779306C15.5635 0.780329 15.9979 0.868045 16.4029 1.03742C16.8079 1.20679 17.1754 1.45449 17.4844 1.76628ZM14.6577 3.65295C14.5472 3.76284 14.4787 3.90798 14.4641 4.06314C14.4495 4.21831 14.4897 4.37369 14.5777 4.50228L14.655 4.59428L17.9564 7.89295L21.2577 4.59428C21.3681 4.48397 21.4364 4.33841 21.4505 4.18296C21.4646 4.02751 21.4238 3.87203 21.335 3.74362L21.2577 3.65028C21.1472 3.54005 21.0016 3.47207 20.8461 3.45818C20.6907 3.44429 20.5353 3.48538 20.407 3.57428L20.3137 3.65162L17.955 6.00895L15.599 3.64895L15.5084 3.57428C15.38 3.48555 15.2245 3.44469 15.069 3.45882C14.9136 3.47295 14.768 3.54118 14.6577 3.65162V3.65295Z" fill="#427A99"/>
</svg>
